<mxfile host="app.diagrams.net" agent="Mozilla/5.0 (X11; Linux x86_64; rv:142.0) Gecko/20100101 Firefox/142.0" version="28.2.5">
  <diagram name="Страница — 1" id="q_jw5cTExRdz0n0Pm-4d">
    <mxGraphModel dx="1564" dy="475" grid="1" gridSize="10" guides="1" tooltips="1" connect="1" arrows="1" fold="1" page="1" pageScale="1" pageWidth="827" pageHeight="1169" math="0" shadow="0">
      <root>
        <mxCell id="0" />
        <mxCell id="1" parent="0" />
        <mxCell id="zp75zalI9xQkN-Zas0N3-2" value="User" style="swimlane;fontStyle=0;childLayout=stackLayout;horizontal=1;startSize=30;horizontalStack=0;resizeParent=1;resizeParentMax=0;resizeLast=0;collapsible=1;marginBottom=0;whiteSpace=wrap;html=1;" parent="1" vertex="1">
          <mxGeometry x="-20" y="150" width="170" height="180" as="geometry" />
        </mxCell>
        <mxCell id="zp75zalI9xQkN-Zas0N3-3" value="user_id(PK)&lt;br&gt;nickname(NOT NULL)&lt;div&gt;email(NOT NULL)&lt;br&gt;rating(NOT NULL)&lt;/div&gt;&lt;div&gt;max_streak(NOT NULL)&lt;/div&gt;&lt;div&gt;current_streak(NOT NULL)&lt;/div&gt;&lt;div&gt;avatar_filepath&lt;br&gt;timezone(NOT NULL)&lt;br&gt;bio(NOT NULL)&lt;/div&gt;" style="text;strokeColor=none;fillColor=none;align=left;verticalAlign=middle;spacingLeft=4;spacingRight=4;overflow=hidden;points=[[0,0.5],[1,0.5]];portConstraint=eastwest;rotatable=0;whiteSpace=wrap;html=1;" parent="zp75zalI9xQkN-Zas0N3-2" vertex="1">
          <mxGeometry y="30" width="170" height="150" as="geometry" />
        </mxCell>
        <mxCell id="zp75zalI9xQkN-Zas0N3-7" value="Friendship" style="swimlane;fontStyle=0;childLayout=stackLayout;horizontal=1;startSize=30;horizontalStack=0;resizeParent=1;resizeParentMax=0;resizeLast=0;collapsible=1;marginBottom=0;whiteSpace=wrap;html=1;" parent="1" vertex="1">
          <mxGeometry x="220" y="60" width="260" height="110" as="geometry" />
        </mxCell>
        <mxCell id="zp75zalI9xQkN-Zas0N3-8" value="user_id1(PK, FK)&lt;div&gt;user_id2(PK, FK)&lt;/div&gt;&lt;div&gt;status(friends, pending_1, pending_2, blocked1, blocked2) (NOT NULL)&lt;/div&gt;" style="text;strokeColor=none;fillColor=none;align=left;verticalAlign=middle;spacingLeft=4;spacingRight=4;overflow=hidden;points=[[0,0.5],[1,0.5]];portConstraint=eastwest;rotatable=0;whiteSpace=wrap;html=1;" parent="zp75zalI9xQkN-Zas0N3-7" vertex="1">
          <mxGeometry y="30" width="260" height="80" as="geometry" />
        </mxCell>
        <mxCell id="CJHXU8OiMX2W7wS14sHt-1" value="Video" style="swimlane;fontStyle=0;childLayout=stackLayout;horizontal=1;startSize=30;horizontalStack=0;resizeParent=1;resizeParentMax=0;resizeLast=0;collapsible=1;marginBottom=0;whiteSpace=wrap;html=1;" parent="1" vertex="1">
          <mxGeometry x="620" y="170" width="140" height="120" as="geometry" />
        </mxCell>
        <mxCell id="CJHXU8OiMX2W7wS14sHt-2" value="&lt;div&gt;video_id(PK)&lt;/div&gt;&lt;div&gt;description(NOT NULL)&lt;/div&gt;&lt;div&gt;filepath(NOT NULL)&lt;/div&gt;&lt;div&gt;author(FK)&lt;/div&gt;" style="text;strokeColor=none;fillColor=none;align=left;verticalAlign=middle;spacingLeft=4;spacingRight=4;overflow=hidden;points=[[0,0.5],[1,0.5]];portConstraint=eastwest;rotatable=0;whiteSpace=wrap;html=1;" parent="CJHXU8OiMX2W7wS14sHt-1" vertex="1">
          <mxGeometry y="30" width="140" height="90" as="geometry" />
        </mxCell>
        <mxCell id="CJHXU8OiMX2W7wS14sHt-9" value="Reaction" style="swimlane;fontStyle=0;childLayout=stackLayout;horizontal=1;startSize=26;horizontalStack=0;resizeParent=1;resizeParentMax=0;resizeLast=0;collapsible=1;marginBottom=0;align=center;fontSize=14;" parent="1" vertex="1">
          <mxGeometry x="220" y="400" width="310" height="110" as="geometry" />
        </mxCell>
        <mxCell id="CJHXU8OiMX2W7wS14sHt-10" value="user_id(PK, FK)&lt;div&gt;video_id(PK, FK)&lt;/div&gt;&lt;div&gt;reaction_type(heart, flame, funny, angry)(NOT NULL)&lt;/div&gt;" style="text;strokeColor=none;fillColor=none;spacingLeft=4;spacingRight=4;overflow=hidden;rotatable=0;points=[[0,0.5],[1,0.5]];portConstraint=eastwest;fontSize=12;whiteSpace=wrap;html=1;" parent="CJHXU8OiMX2W7wS14sHt-9" vertex="1">
          <mxGeometry y="26" width="310" height="84" as="geometry" />
        </mxCell>
        <mxCell id="3Et0o30di1GEEGCfiCrW-1" value="" style="edgeStyle=entityRelationEdgeStyle;fontSize=12;html=1;endArrow=ERzeroToMany;startArrow=ERmandOne;rounded=0;entryX=-0.02;entryY=0.338;entryDx=0;entryDy=0;entryPerimeter=0;exitX=1;exitY=0.5;exitDx=0;exitDy=0;" parent="1" source="zp75zalI9xQkN-Zas0N3-3" target="CJHXU8OiMX2W7wS14sHt-2" edge="1">
          <mxGeometry width="100" height="100" relative="1" as="geometry">
            <mxPoint x="190" y="500" as="sourcePoint" />
            <mxPoint x="290" y="400" as="targetPoint" />
          </mxGeometry>
        </mxCell>
        <mxCell id="3Et0o30di1GEEGCfiCrW-2" value="" style="edgeStyle=entityRelationEdgeStyle;fontSize=12;html=1;endArrow=ERzeroToMany;startArrow=ERmandOne;rounded=0;entryX=1;entryY=0.5;entryDx=0;entryDy=0;exitX=-0.02;exitY=0.827;exitDx=0;exitDy=0;exitPerimeter=0;" parent="1" source="CJHXU8OiMX2W7wS14sHt-2" target="CJHXU8OiMX2W7wS14sHt-10" edge="1">
          <mxGeometry width="100" height="100" relative="1" as="geometry">
            <mxPoint x="440" y="230" as="sourcePoint" />
            <mxPoint x="520" y="160" as="targetPoint" />
          </mxGeometry>
        </mxCell>
        <mxCell id="3Et0o30di1GEEGCfiCrW-3" value="" style="edgeStyle=entityRelationEdgeStyle;fontSize=12;html=1;endArrow=ERzeroToMany;startArrow=ERmandOne;rounded=0;entryX=-0.008;entryY=0.326;entryDx=0;entryDy=0;entryPerimeter=0;exitX=1.009;exitY=0.899;exitDx=0;exitDy=0;exitPerimeter=0;" parent="1" source="zp75zalI9xQkN-Zas0N3-3" target="CJHXU8OiMX2W7wS14sHt-10" edge="1">
          <mxGeometry width="100" height="100" relative="1" as="geometry">
            <mxPoint x="50" y="280" as="sourcePoint" />
            <mxPoint x="150" y="380" as="targetPoint" />
            <Array as="points">
              <mxPoint x="130" y="390" />
            </Array>
          </mxGeometry>
        </mxCell>
        <mxCell id="3Et0o30di1GEEGCfiCrW-4" value="" style="edgeStyle=entityRelationEdgeStyle;fontSize=12;html=1;endArrow=ERoneToMany;startArrow=ERzeroToMany;rounded=0;entryX=1.027;entryY=0.333;entryDx=0;entryDy=0;entryPerimeter=0;exitX=0;exitY=0.5;exitDx=0;exitDy=0;" parent="1" source="zp75zalI9xQkN-Zas0N3-8" target="zp75zalI9xQkN-Zas0N3-3" edge="1">
          <mxGeometry width="100" height="100" relative="1" as="geometry">
            <mxPoint x="270" y="200" as="sourcePoint" />
            <mxPoint x="150" y="80" as="targetPoint" />
          </mxGeometry>
        </mxCell>
      </root>
    </mxGraphModel>
  </diagram>
</mxfile>
